<svg width="12" height="12" viewBox="0 0 12 12" fill="none" xmlns="http://www.w3.org/2000/svg">
<path d="M9.75003 5.99998C9.75044 6.33084 9.60834 6.64583 9.36003 6.86448L3.78403 11.77C3.39332 12.0978 2.81082 12.0469 2.48298 11.6562C2.16587 11.2783 2.20178 10.7178 2.56453 10.3835L7.44053 6.09399C7.49245 6.04848 7.49764 5.96951 7.45214 5.91759C7.44853 5.91347 7.44465 5.9096 7.44053 5.90599L2.56453 1.61649C2.1895 1.27082 2.16569 0.686578 2.51136 0.311543C2.8457 -0.0512092 3.40612 -0.0871226 3.78403 0.229986L9.35803 5.13399C9.60694 5.35301 9.74971 5.66843 9.75003 5.99998Z" fill="#ACAFB9"/>
</svg>
