<svg width="12" height="12" viewBox="0 0 12 12" fill="none" xmlns="http://www.w3.org/2000/svg">
<path d="M11.8535 5.64651L10.2865 4.07951V4.07951C10.263 4.05606 10.2499 4.0242 10.25 3.99101V1.00001C10.25 0.723872 10.0262 0.500015 9.75002 0.500015H8.25002V0.500015C7.97387 0.500015 7.75001 0.723872 7.75001 1.00001V1.24101V1.24101C7.75014 1.31005 7.69427 1.36611 7.62524 1.36624C7.59196 1.3663 7.56002 1.35308 7.53652 1.32952L6.35352 0.146515V0.146515C6.15827 -0.0486757 5.84177 -0.0486757 5.64652 0.146515L0.146515 5.64652V5.64652C-0.0487172 5.84181 -0.0486697 6.15839 0.146622 6.35362C0.24036 6.44733 0.36747 6.49999 0.500015 6.50001H1.12502V6.50001C1.19405 6.50001 1.25002 6.55598 1.25002 6.62501V11.5V11.5C1.25002 11.7762 1.47387 12 1.75002 12H4.62502V12C4.69405 12 4.75002 11.944 4.75002 11.875V9.50001V9.50001C4.75002 8.80966 5.30966 8.25001 6.00002 8.25001C6.69037 8.25001 7.25002 8.80966 7.25002 9.50001V9.50001V11.875V11.875C7.25002 11.944 7.30598 12 7.37502 12H10.25V12C10.5262 12 10.75 11.7762 10.75 11.5V6.62501V6.62501C10.75 6.55598 10.806 6.50001 10.875 6.50001H11.5V6.50001C11.7762 6.49995 12 6.27605 11.9999 5.99991C11.9999 5.86736 11.9472 5.74025 11.8535 5.64652V5.64651Z" fill="#ACAFB9"/>
</svg>
