<svg width="12" height="12" viewBox="0 0 12 12" fill="none" xmlns="http://www.w3.org/2000/svg">
<path fill-rule="evenodd" clip-rule="evenodd" d="M8.86399 0.25496L11.746 3.13746L11.743 3.13546C11.7811 3.17365 11.815 3.21591 11.844 3.26147C12.0632 3.60636 11.9614 4.0637 11.6165 4.28296L8.39499 6.33296C8.61837 7.26165 8.4751 8.24071 7.99499 9.06646C7.87881 9.26432 7.67757 9.39725 7.44999 9.42646C7.22274 9.45405 6.99534 9.37635 6.83249 9.21546L2.77999 5.16546C2.73504 5.12054 2.69605 5.07 2.66401 5.01512C2.45796 4.66217 2.57705 4.20901 2.92999 4.00296C3.75665 3.52494 4.73504 3.3818 5.66399 3.60296L7.71399 0.38146C7.74339 0.335053 7.77786 0.292061 7.81677 0.253279C8.10642 -0.0354398 8.57528 -0.0346868 8.86399 0.25496ZM7.58599 3.37996L8.64599 1.71346L8.64649 1.71346L8.65164 1.70536C8.72341 1.58741 8.68597 1.43361 8.56802 1.36184C8.45006 1.29007 8.29626 1.32751 8.22449 1.44546L7.16399 3.11146C7.09001 3.228 7.12448 3.38244 7.24099 3.45646C7.35779 3.52825 7.51048 3.49439 7.58599 3.37996ZM0.257004 10.684L3.227 7.71397C3.51765 7.43326 3.97843 7.43326 4.26907 7.71397C4.56701 8.00173 4.57526 8.47653 4.2875 8.77447L1.3175 11.7445C1.02274 12.0327 0.55177 12.0327 0.257004 11.7445C-0.0357821 11.4516 -0.0357821 10.9768 0.257004 10.684Z" fill="#ACAFB9"/>
</svg>
