<svg width="12" height="12" viewBox="0 0 12 12" fill="none" xmlns="http://www.w3.org/2000/svg">
<path d="M4.75 11C4.75 11.4142 5.08579 11.75 5.5 11.75H6.5C6.91421 11.75 7.25 11.4142 7.25 11V7.375C7.25 7.30596 7.30596 7.25 7.375 7.25H11C11.4142 7.25 11.75 6.91421 11.75 6.5V5.5C11.75 5.08579 11.4142 4.75 11 4.75H7.375C7.30596 4.75 7.25 4.69404 7.25 4.625V1C7.25 0.585786 6.91421 0.25 6.5 0.25H5.5C5.08579 0.25 4.75 0.585786 4.75 1V4.625C4.75 4.69404 4.69404 4.75 4.625 4.75H1C0.585786 4.75 0.25 5.08579 0.25 5.5V6.5C0.25 6.91421 0.585786 7.25 1 7.25H4.625C4.69404 7.25 4.75 7.30596 4.75 7.375V11Z" fill="#ACAFB9"/>
</svg>
