<svg width="12" height="12" viewBox="0 0 12 12" fill="none" xmlns="http://www.w3.org/2000/svg">
<g clip-path="url(#clip0)">
<path d="M11.145 4.48999H11.145C11.418 4.4824 11.6332 4.25494 11.6256 3.98194C11.6241 3.92798 11.6137 3.87462 11.595 3.82399V3.82399C10.7003 1.50177 8.45903 -0.0219992 5.9705 -9.24773e-06C0.7595 0.355991 0 4.65849 0 5.99999L2.20409e-08 6.00001C0.00421105 9.14913 2.44025 11.7602 5.5815 11.9825V11.9825C5.8122 11.9945 6.02845 11.87 6.134 11.6645V11.6645C6.27146 11.409 6.20375 11.0916 5.974 10.9145L5.974 10.9145C5.26878 10.3848 4.70653 9.68784 4.338 8.88651V8.88651C4.30938 8.82338 4.33736 8.74901 4.40049 8.72039C4.40409 8.71875 4.40776 8.71729 4.4115 8.71601V8.71601C4.61258 8.64932 4.74875 8.46185 4.74998 8.25001C4.74998 7.97386 4.52613 7.75001 4.24998 7.75001H4.04998V7.75001C3.99152 7.75003 3.94085 7.70954 3.92798 7.65251L3.92798 7.6525C3.80792 7.10991 3.74822 6.55571 3.74998 6V6.00005C3.74905 5.53049 3.7914 5.06184 3.87648 4.60005V4.60005C3.88877 4.54166 3.94032 4.49991 3.99998 4.50001C9.44998 4.50001 10.7865 4.50301 11.145 4.49001L11.145 4.48999ZM1.4095 7.74999V7.74999C1.35669 7.75004 1.3096 7.71677 1.292 7.66699H1.292C0.935638 6.6769 0.904633 5.59892 1.2035 4.58999V4.58999C1.21886 4.53673 1.26757 4.50004 1.323 4.49999H2.7265V4.49999C2.79554 4.50001 2.85148 4.556 2.85145 4.62504C2.85145 4.63138 2.85096 4.63772 2.85 4.64399L2.85 4.64399C2.78231 5.0928 2.74888 5.5461 2.75 5.99998V6.00114C2.75 6.53798 2.80029 7.07365 2.90022 7.60112V7.60112C2.90688 7.63775 2.89699 7.67546 2.87322 7.70412V7.70412C2.84952 7.73268 2.81432 7.74917 2.77722 7.74912L1.4095 7.74999ZM4.0205 10.329V10.329C4.06063 10.3852 4.04763 10.4632 3.99146 10.5034C3.95446 10.5298 3.90604 10.5341 3.865 10.5145H3.865C3.11142 10.1586 2.4584 9.6206 1.965 8.94899V8.94899C1.92358 8.89376 1.93477 8.81541 1.99 8.77399C2.01164 8.75776 2.03795 8.74899 2.065 8.74899H3.112V8.74899C3.16419 8.74907 3.21084 8.78156 3.229 8.83049L3.229 8.83049C3.42564 9.36237 3.69179 9.86591 4.0205 10.328L4.0205 10.329ZM3.15 3.41349V3.41349C3.13324 3.46526 3.08491 3.50024 3.0305 3.49999H1.9V3.49999C1.83124 3.50038 1.77518 3.44496 1.77479 3.3762C1.77465 3.35181 1.78168 3.32792 1.795 3.30749L1.795 3.30749C2.30177 2.51822 3.01934 1.88656 3.8665 1.48399V1.48399C3.92882 1.45428 4.00342 1.48071 4.03313 1.54303C4.05269 1.58407 4.04843 1.6325 4.022 1.66949V1.66949C3.64627 2.20425 3.35238 2.79205 3.15 3.41349V3.41349ZM4.3615 3.49999V3.49999C4.29246 3.49992 4.23656 3.4439 4.23662 3.37487C4.23664 3.35861 4.23982 3.34252 4.246 3.32749L4.246 3.32749C4.59048 2.45409 5.17261 1.69459 5.9265 1.13499V1.13499C5.9698 1.10379 6.0282 1.10379 6.0715 1.13499V1.13499C6.82248 1.69642 7.40343 2.45474 7.75 3.32599V3.32599C7.76598 3.36463 7.76167 3.40868 7.7385 3.44349V3.44349C7.71603 3.47813 7.67779 3.49931 7.6365 3.49999L4.3615 3.49999ZM8.97 3.49999V3.49999C8.91617 3.5001 8.86836 3.46561 8.8515 3.41449L8.8515 3.41449C8.64556 2.78631 8.34602 2.1928 7.963 1.65399V1.65399C7.92262 1.59799 7.93528 1.51987 7.99128 1.47949C8.02794 1.45306 8.076 1.44847 8.117 1.46749V1.46749C8.979 1.86693 9.70796 2.50582 10.217 3.30799V3.30799C10.254 3.36627 10.2368 3.44351 10.1785 3.48052C10.1584 3.49323 10.1352 3.49998 10.1115 3.49999L8.97 3.49999Z" fill="#464953"/>
<path d="M10.588 9.87851V9.87851C10.5466 9.83707 10.5395 9.77242 10.571 9.72301V9.72301C11.3876 8.43948 11.009 6.737 9.72551 5.92043C8.44198 5.10385 6.7395 5.48239 5.92293 6.76593C5.10635 8.04946 5.4849 9.75194 6.76843 10.5685C7.67058 11.1425 8.82337 11.1425 9.72551 10.5685V10.5685C9.77493 10.537 9.83957 10.5441 9.88102 10.5855L11.15 11.8525V11.8525C11.3486 12.0444 11.6652 12.0389 11.857 11.8402C12.0442 11.6465 12.0442 11.3393 11.857 11.1455L10.588 9.87851ZM8.25001 6.50001V6.50001C9.21651 6.50001 10 7.28351 10 8.25001C10 9.21651 9.21651 10 8.25001 10C7.28351 10 6.50001 9.21651 6.50001 8.25001V8.25001C6.50001 7.28351 7.28351 6.50001 8.25001 6.50001C8.25001 6.50001 8.25001 6.50001 8.25001 6.50001V6.50001Z" fill="#464953"/>
</g>
<defs>
<clipPath id="clip0">
<rect width="12" height="12" fill="white"/>
</clipPath>
</defs>
</svg>
